<svg width="18" height="18" viewBox="0 0 18 18" fill="none" xmlns="http://www.w3.org/2000/svg">
<g clip-path="url(#clip0_40_17)">
<path fill-rule="evenodd" clip-rule="evenodd" d="M16.3259 2.77772C17 3.78661 17 5.19108 17 8C17 10.8089 17 12.2134 16.3259 13.2223C16.034 13.659 15.659 14.034 15.2223 14.3259C14.6615 14.7006 13.9785 14.867 13 14.9409V15L11.8944 17.2111C11.5259 17.9482 10.4741 17.9482 10.1056 17.2111L9 15H8C5.19108 15 3.78661 15 2.77772 14.3259C2.34096 14.034 1.96596 13.659 1.67412 13.2223C1 12.2134 1 10.8089 1 8C1 5.19108 1 3.78661 1.67412 2.77772C1.96596 2.34096 2.34096 1.96596 2.77772 1.67412C3.78661 1 5.19108 1 8 1H10C12.8089 1 14.2134 1 15.2223 1.67412C15.659 1.96596 16.034 2.34096 16.3259 2.77772Z" fill="#D98D1C"/>
<path d="M6.85307 4.05084C6.73514 3.49117 7.10979 2.9468 7.67466 2.85705L8.70033 2.69408C9.26519 2.60432 9.79012 3.00576 9.85148 3.57441L10.3096 7.82068C10.3668 8.35042 9.99855 8.83195 9.47233 8.91556L8.86908 9.01141C8.34286 9.09502 7.8435 8.75135 7.73364 8.22998L6.85307 4.05084Z" fill="white"/>
<circle cx="9.5" cy="11.5" r="1.5" fill="white"/>
</g>
<defs>
<clipPath id="clip0_40_17">
<rect width="18" height="18" fill="white"/>
</clipPath>
</defs>
</svg>
